<?xml version="1.0"?>
<svg xmlns="http://www.w3.org/2000/svg" xmlns:xlink="http://www.w3.org/1999/xlink" xmlns:svgjs="http://svgjs.com/svgjs" version="1.1" width="512" height="512" x="0" y="0" viewBox="0 0 511.995 511.995" style="enable-background:new 0 0 512 512" xml:space="preserve" class=""><g><g xmlns="http://www.w3.org/2000/svg"><path d="m334.34 185.132-8.693 15.055c-1.223 2.118-2.162 4.39-2.792 6.752-1.266 4.75 2.313 9.434 7.252 9.434 3.315 0 6.348-2.215 7.242-5.57.291-1.089.724-2.138 1.288-3.115l8.692-15.055c3.153-5.462 4.82-11.683 4.82-17.989v-5.77c0-10.003-3.895-19.407-10.968-26.48l-11.416-11.416c-8.26-8.259-19.241-12.808-30.921-12.808-11.386 0-20.648 9.263-20.648 20.648v8.289c0 4.143 3.358 7.5 7.5 7.5s7.5-3.357 7.5-7.5v-8.289c0-3.114 2.534-5.648 5.648-5.648 7.673 0 14.888 2.988 20.314 8.415l11.418 11.415c4.24 4.239 6.575 9.877 6.575 15.873v5.77c-.001 3.677-.972 7.304-2.811 10.489z" fill="#ffffff" data-original="#000000" style="" class=""/><path d="m255.997 162.589c4.142 0 7.5-3.357 7.5-7.5v-23.552c0-5.211 2.029-10.109 5.713-13.793 1.839-1.839 4.377-2.772 6.977-2.563 4.115.334 7.747-2.741 8.081-6.87s-2.742-7.747-6.871-8.081c-6.989-.566-13.838 1.952-18.793 6.907-.929.929-1.799 1.902-2.607 2.914-.808-1.012-1.678-1.985-2.607-2.914-4.955-4.954-11.8-7.469-18.793-6.907-4.129.334-7.205 3.952-6.871 8.081s3.955 7.212 8.081 6.87c2.598-.213 5.138.724 6.977 2.563 3.685 3.684 5.713 8.582 5.713 13.793v23.552c0 4.142 3.358 7.5 7.5 7.5z" fill="#ffffff" data-original="#000000" style="" class=""/><path d="m226.298 154.606c4.142 0 7.5-3.357 7.5-7.5v-8.289c0-11.386-9.263-20.648-20.648-20.648-11.68 0-22.661 4.549-30.921 12.808l-11.416 11.416c-7.073 7.073-10.968 16.478-10.968 26.48v5.77c0 6.307 1.667 12.527 4.82 17.989l8.691 15.053c.569.987 1.006 2.045 1.296 3.144 1.056 3.994 5.153 6.396 9.168 5.334 4.004-1.059 6.393-5.163 5.334-9.168-.629-2.38-1.573-4.67-2.807-6.808l-8.692-15.055c-1.839-3.185-2.811-6.812-2.811-10.489v-5.77c0-5.996 2.335-11.634 6.575-15.873l11.416-11.416c5.427-5.427 12.641-8.415 20.314-8.415 3.115 0 5.648 2.534 5.648 5.648v8.289c.001 4.143 3.359 7.5 7.501 7.5z" fill="#ffffff" data-original="#000000" style="" class=""/><path d="m444.503.305-32.925 8.822c-16.889 4.524-32.35 13.451-44.712 25.813l-43.195 43.194c-.583.584-1.539.709-2.434.314-4.989-2.188-10.281-3.299-15.729-3.299h-99.021c-5.448 0-10.74 1.11-15.729 3.3-.894.392-1.849.269-2.434-.316l-43.194-43.192c-12.362-12.363-27.823-21.29-44.712-25.814l-32.926-8.822c-3.913-1.05-8.062.67-10.088 4.179-2.025 3.51-1.438 7.961 1.426 10.824 23.411 23.411 11.599 11.6 15.285 15.286 11.617 11.616 21.671 24.72 29.885 38.946l4.214 7.299c6.664 11.542 10.186 24.688 10.186 38.015v12.768c0 10.147 3.952 19.688 11.128 26.865l6.474 6.474v38.138c0 14.131 3.029 27.797 8.779 40.257v10.509c0 24.55 2.545 49.184 7.566 73.225v3.715c0 16.487-6.421 31.989-18.079 43.647l-1.05 1.05c-8.706 8.706-16.533 18.344-23.264 28.646-2.266 3.468-1.292 8.115 2.176 10.381 3.497 2.285 8.134 1.262 10.381-2.176 6.167-9.438 13.338-18.268 21.313-26.242l1.051-1.051c6.899-6.9 12.323-14.882 16.112-23.564l26.336 98.286c.898 3.351 3.928 5.561 7.24 5.561 4.932 0 8.525-4.682 7.25-9.443l-30.339-113.225c-6.465-24.124-10.461-49.612-11.451-75.997 2.719 3.075 2.813 3.075 21.046 21.307v36.754c0 15.044 10.214 28.025 24.839 31.567 7.587 1.837 15.795-.516 21.421-6.141l3.195-3.195c3.471 2.498 7.378 4.356 11.57 5.479 9.043 2.425 18.657 2.453 27.81 0 4.191-1.123 8.099-2.981 11.57-5.479l3.195 3.195c5.62 5.62 13.824 7.98 21.42 6.141 14.625-3.542 24.839-16.523 24.839-31.567v-36.754l16.911-16.911c1.429-1.429 2.808-2.896 4.135-4.397-.94 25.056-4.643 50.593-11.451 75.998l-30.339 113.225c-1.072 4.001 1.302 8.113 5.303 9.186 3.993 1.073 8.113-1.297 9.186-5.303l26.336-98.286c3.789 8.682 9.214 16.665 16.114 23.566l1.048 1.048c30.72 30.719 47.745 71.481 48.007 114.886-39.445 0-286.154 0-320.361 0 .124-20.179 3.917-39.935 11.278-58.735 1.51-3.857-.393-8.208-4.25-9.718-3.855-1.511-8.208.392-9.718 4.249-8.17 20.868-12.313 42.813-12.313 65.226v3.657c0 5.691 4.63 10.321 10.321 10.321h329.725c5.691 0 10.321-4.63 10.321-10.321v-3.657c0-47.791-18.611-92.722-52.405-126.516l-1.048-1.047c-11.659-11.66-18.08-27.162-18.08-43.649v-3.715c5.021-24.038 7.566-48.673 7.566-73.225v-10.509c5.75-12.459 8.779-26.125 8.779-40.257v-3.398c0-4.143-3.358-7.5-7.5-7.5s-7.5 3.357-7.5 7.5v3.398c0 21.454-8.291 41.896-23.762 57.366l-6.597 6.597c-3.14-40.104-31.331-74.432-70.788-84.958-2.518-.672-5.18-.672-7.699 0-8.71 2.323-17.026 5.85-24.716 10.479-3.548 2.137-4.693 6.745-2.557 10.294s6.744 4.693 10.294 2.558c6.482-3.903 13.496-6.877 20.903-8.813 35.242 9.402 59.855 41.443 59.855 77.918v50.199c0 8.096-5.498 15.082-13.371 16.989-2.535.614-5.329-.215-7.282-2.17l-23.468-23.468c-2.387-2.387-5.219-4.168-8.308-5.265v-14.97c19.963-.991 36.083-17.535 36.083-37.941v-1.334c0-15.168-12.34-27.509-27.508-27.509h-32.149c-15.168 0-27.508 12.341-27.508 27.509v1.334c0 20.161 15.855 36.936 36.083 37.941v14.97c-3.089 1.097-5.921 2.878-8.308 5.264l-23.469 23.469c-1.953 1.954-4.742 2.786-7.283 2.17-7.873-1.907-13.371-8.894-13.371-16.989v-50.104c0-17.184 5.341-33.608 15.445-47.501 2.437-3.35 1.696-8.04-1.654-10.477s-8.04-1.697-10.477 1.654c-10.489 14.42-16.649 31.142-18.021 48.753l-6.598-6.598c-15.476-15.476-23.762-35.918-23.762-57.366v-48.027c0-6.18 1.556-12.318 4.5-17.752 4.104-7.576 5.154-16.225 2.954-24.354l-7.938-29.326c-5.74-21.207-19.31-38.968-38.24-50.072 8.202 4.073 15.729 9.465 22.245 15.98l43.194 43.192c4.987 4.987 12.473 6.339 19.069 3.445 3.077-1.351 6.341-2.035 9.702-2.035h99.021c3.36 0 6.625.685 9.701 2.034 6.597 2.896 14.081 1.544 19.069-3.443l43.194-43.194c6.515-6.515 14.043-11.906 22.245-15.979-1.521.894-2.951 1.794-4.337 2.723-16.769 11.246-28.646 27.925-33.903 47.348-9.037 33.388-7.946 29.35-8.039 29.709-2.065 8.017-.986 16.513 3.055 23.971 2.944 5.434 4.5 11.572 4.5 17.752v9.629c0 4.143 3.358 7.5 7.5 7.5 4.053 0 7.355-3.215 7.495-7.235l6.48-6.48c7.176-7.176 11.127-16.717 11.127-26.864v-12.768c0-13.327 3.522-26.473 10.186-38.015l4.214-7.299c8.214-14.228 18.27-27.331 29.885-38.947 14.39-14.391 15.136-15.136 15.284-15.284 2.865-2.864 3.452-7.315 1.427-10.825s-6.174-5.229-10.087-4.181zm-178.484 333.655c-6.557 1.758-13.488 1.756-20.045 0-1.614-.432-3.154-1.053-4.596-1.846l9.419-9.419c2.876-2.875 7.526-2.875 10.402.001l9.418 9.418c-1.443.792-2.984 1.413-4.598 1.846zm-38.605-81.38c0-6.897 5.611-12.509 12.508-12.509h32.149c6.897 0 12.508 5.611 12.508 12.509-.049.707.315 4.359-1.289 8.929h-5.713c-1.497 0-2.715-1.219-2.715-2.716v-5.832c0-4.143-3.358-7.5-7.5-7.5s-7.5 3.357-7.5 7.5v5.832c0 7.286 4.422 13.559 10.722 16.277-2.764 1.179-5.804 1.833-8.994 1.833h-11.188c-3.19 0-6.23-.653-8.994-1.833 6.301-2.718 10.722-8.99 10.722-16.277v-5.832c0-4.143-3.358-7.5-7.5-7.5s-7.5 3.357-7.5 7.5v5.832c0 1.497-1.218 2.716-2.715 2.716h-5.713c-1.597-4.556-1.232-8.135-1.288-8.929zm-91.375-169.021 7.938 29.326c1.189 4.395.599 9.114-1.663 13.288-2.389 4.41-4.127 9.15-5.167 14.041-2.439-3.71-3.747-8.051-3.747-12.593v-12.768c0-15.957-4.217-31.695-12.195-45.515l-4.214-7.299c-4.014-6.952-8.435-13.656-13.235-20.075l.512.296c15.739 9.089 27.022 23.755 31.771 41.299zm254.752-14.219c-7.979 13.819-12.195 29.558-12.195 45.515v12.768c0 4.542-1.309 8.883-3.747 12.593-.994-4.677-2.633-9.266-4.975-13.683-.134-.252-.215-.397-.297-.554-2.054-3.897-2.61-8.138-1.805-12.057.158-.767-.374 1.258 8.185-30.363 3.516-12.99 10.657-24.565 20.834-33.477 3.822-3.342 7.41-5.784 11.45-8.115-8.134 10.876-12.409 18.641-17.45 27.373z" fill="#ffffff" data-original="#000000" style="" class=""/></g></g></svg>
